<?xml version="1.0" encoding="UTF-8" ?>
<!DOCTYPE svg PUBLIC "-//W3C//DTD SVG 1.1//EN" "http://www.w3.org/Graphics/SVG/1.1/DTD/svg11.dtd">
<svg width="192pt" height="192pt" viewBox="0 0 192 192" version="1.1" xmlns="http://www.w3.org/2000/svg">
<g id="#54c5f8ff">
<path fill="#54c5f8" opacity="1.00" d=" M 113.31 4.05 C 132.40 3.94 151.50 4.03 170.60 4.00 C 130.41 44.21 90.22 84.42 50.00 124.59 C 40.45 115.08 30.91 105.55 21.41 96.00 C 52.01 65.32 82.70 34.73 113.31 4.05 Z" />
<path fill="#54c5f8" opacity="1.00" d=" M 92.55 109.85 C 99.62 102.82 106.58 95.65 113.77 88.74 C 132.71 88.77 151.65 88.73 170.59 88.75 C 154.04 105.22 137.69 121.96 120.96 138.20 C 111.33 128.91 101.92 119.40 92.55 109.85 Z" />
</g>
<g id="#29b6f6ff">
<path fill="#29b6f6" opacity="1.00" d=" M 64.00 138.65 C 73.17 128.86 83.07 119.46 92.55 109.85 C 101.92 119.40 111.33 128.91 120.96 138.20 L 120.86 138.28 C 111.17 147.63 101.48 157.00 92.00 166.57 C 82.61 157.32 73.38 147.92 64.00 138.65 Z" />
</g>
<g id="#01569aff">
<path fill="#01569a" opacity="1.00" d=" M 92.00 166.57 C 101.48 157.00 111.17 147.63 120.86 138.28 C 137.48 154.81 154.04 171.41 170.59 188.00 C 151.49 187.95 132.36 188.11 113.26 187.91 C 106.21 180.77 99.04 173.74 92.00 166.57 Z" />
</g>
</svg>
